HIERARCHY
ROOT hip
{
  OFFSET 0 90.174 2.4664
  CHANNELS 6 Xposition Yposition Zposition Zrotation Xrotation Yrotation
  JOINT abdomen
  {
    OFFSET 0 -1.186 -1.5018
    CHANNELS 6 Xposition Yposition Zposition Zrotation Xrotation Yrotation
    JOINT abdomen2
    {
      OFFSET 0 9.964 0.2134
      CHANNELS 6 Xposition Yposition Zposition Zrotation Xrotation Yrotation
      JOINT chest
      {
        OFFSET 0 13.134 -3.2573
        CHANNELS 6 Xposition Yposition Zposition Zrotation Xrotation Yrotation
        JOINT neck
        {
          OFFSET 0 20.686 -1.6905
          CHANNELS 6 Xposition Yposition Zposition Zrotation Xrotation Yrotation
          JOINT head
          {
            OFFSET 0 7.238 -0.1237
            CHANNELS 6 Xposition Yposition Zposition Zrotation Xrotation Yrotation
            End Site
            {
              OFFSET 0 0 0
            }
          }
        }
        JOINT lCollar
        {
          OFFSET 1.7069 20.075 5.0056
          CHANNELS 6 Xposition Yposition Zposition Zrotation Xrotation Yrotation
          JOINT lShldr
          {
            OFFSET 13.6458 -0.047 -4.849
            CHANNELS 6 Xposition Yposition Zposition Zrotation Xrotation Yrotation
            JOINT lForeArm
            {
              OFFSET 28.3255 -0.9759 2.2888
              CHANNELS 6 Xposition Yposition Zposition Zrotation Xrotation Yrotation
              JOINT lHand
              {
                OFFSET 22.1583 -0.53 10.8316
                CHANNELS 6 Xposition Yposition Zposition Zrotation Xrotation Yrotation
                JOINT lThumb1
                {
                  OFFSET 0.786 0.112 2.5817
                  CHANNELS 6 Xposition Yposition Zposition Zrotation Xrotation Yrotation
                  JOINT lThumb2
                  {
                    OFFSET 0.3601 -0.878 4.2331
                    CHANNELS 6 Xposition Yposition Zposition Zrotation Xrotation Yrotation
                    JOINT lThumb2_End
                    {
                      OFFSET 1.8127 -1.216 2.2227
                      CHANNELS 6 Xposition Yposition Zposition Zrotation Xrotation Yrotation
                      End Site
                      {
                        OFFSET 0.0181 -0.0122 0.0222
                      }
                    }
                  }
                }
                JOINT lCarpal1
                {
                  OFFSET 0.9571 1.114 1.7695
                  CHANNELS 6 Xposition Yposition Zposition Zrotation Xrotation Yrotation
                  JOINT lIndex1
                  {
                    OFFSET 4.1246 0.487 4.1451
                    CHANNELS 6 Xposition Yposition Zposition Zrotation Xrotation Yrotation
                    JOINT lIndex2
                    {
                      OFFSET 3.4052 -1.454 2.7682
                      CHANNELS 6 Xposition Yposition Zposition Zrotation Xrotation Yrotation
                      JOINT lIndex2_End
                      {
                        OFFSET 1.4531 -1.795 1.2713
                        CHANNELS 6 Xposition Yposition Zposition Zrotation Xrotation Yrotation
                        End Site
                        {
                          OFFSET 0.0145 -0.0179 0.0127
                        }
                      }
                    }
                  }
                  JOINT lMid1
                  {
                    OFFSET 5.6954 0.21 2.1184
                    CHANNELS 6 Xposition Yposition Zposition Zrotation Xrotation Yrotation
                    JOINT lMid2
                    {
                      OFFSET 3.9766 -1.54 2.3863
                      CHANNELS 6 Xposition Yposition Zposition Zrotation Xrotation Yrotation
                      JOINT lMid2_End
                      {
                        OFFSET 1.4042 -1.926 1.125
                        CHANNELS 6 Xposition Yposition Zposition Zrotation Xrotation Yrotation
                        End Site
                        {
                          OFFSET 0.014 -0.0193 0.0113
                        }
                      }
                    }
                  }
                }
                JOINT lCarpal2
                {
                  OFFSET 2.0956 0.66 -0.3894
                  CHANNELS 6 Xposition Yposition Zposition Zrotation Xrotation Yrotation
                  JOINT lRing1
                  {
                    OFFSET 5.0395 -0.09 2.4971
                    CHANNELS 6 Xposition Yposition Zposition Zrotation Xrotation Yrotation
                    JOINT lRing2
                    {
                      OFFSET 3.7921 -1.552 1.4806
                      CHANNELS 6 Xposition Yposition Zposition Zrotation Xrotation Yrotation
                      JOINT lRing2_End
                      {
                        OFFSET 1.4655 -1.808 0.9609
                        CHANNELS 6 Xposition Yposition Zposition Zrotation Xrotation Yrotation
                        End Site
                        {
                          OFFSET 0.0147 -0.0181 0.0096
                        }
                      }
                    }
                  }
                  JOINT lPinky1
                  {
                    OFFSET 4.9141 -1.269 0.3591
                    CHANNELS 6 Xposition Yposition Zposition Zrotation Xrotation Yrotation
                    JOINT lPinky2
                    {
                      OFFSET 3.1477 -1.685 0.8462
                      CHANNELS 6 Xposition Yposition Zposition Zrotation Xrotation Yrotation
                      JOINT lPinky2_End
                      {
                        OFFSET 0.8055 -1.585 0.7955
                        CHANNELS 6 Xposition Yposition Zposition Zrotation Xrotation Yrotation
                        End Site
                        {
                          OFFSET 0.0081 -0.0158 0.008
                        }
                      }
                    }
                  }
                }
              }
            }
          }
        }
        JOINT rCollar
        {
          OFFSET -1.7069 20.075 5.0056
          CHANNELS 6 Xposition Yposition Zposition Zrotation Xrotation Yrotation
          JOINT rShldr
          {
            OFFSET -13.6458 -0.047 -4.849
            CHANNELS 6 Xposition Yposition Zposition Zrotation Xrotation Yrotation
            JOINT rForeArm
            {
              OFFSET -28.3255 -0.9759 2.2888
              CHANNELS 6 Xposition Yposition Zposition Zrotation Xrotation Yrotation
              JOINT rHand
              {
                OFFSET -22.1583 -0.53 10.8316
                CHANNELS 6 Xposition Yposition Zposition Zrotation Xrotation Yrotation
                JOINT rThumb1
                {
                  OFFSET -0.786 0.112 2.5817
                  CHANNELS 6 Xposition Yposition Zposition Zrotation Xrotation Yrotation
                  JOINT rThumb2
                  {
                    OFFSET -0.3601 -0.878 4.2331
                    CHANNELS 6 Xposition Yposition Zposition Zrotation Xrotation Yrotation
                    JOINT rThumb2_End
                    {
                      OFFSET -1.8127 -1.216 2.2227
                      CHANNELS 6 Xposition Yposition Zposition Zrotation Xrotation Yrotation
                      End Site
                      {
                        OFFSET -0.0181 -0.0122 0.0222
                      }
                    }
                  }
                }
                JOINT rCarpal1
                {
                  OFFSET -0.9571 1.114 1.7695
                  CHANNELS 6 Xposition Yposition Zposition Zrotation Xrotation Yrotation
                  JOINT rIndex1
                  {
                    OFFSET -4.1246 0.487 4.1451
                    CHANNELS 6 Xposition Yposition Zposition Zrotation Xrotation Yrotation
                    JOINT rIndex2
                    {
                      OFFSET -3.4052 -1.454 2.7682
                      CHANNELS 6 Xposition Yposition Zposition Zrotation Xrotation Yrotation
                      JOINT rIndex2_End
                      {
                        OFFSET -1.4531 -1.795 1.2713
                        CHANNELS 6 Xposition Yposition Zposition Zrotation Xrotation Yrotation
                        End Site
                        {
                          OFFSET -0.0145 -0.018 0.0127
                        }
                      }
                    }
                  }
                  JOINT rMid1
                  {
                    OFFSET -5.6954 0.21 2.1184
                    CHANNELS 6 Xposition Yposition Zposition Zrotation Xrotation Yrotation
                    JOINT rMid2
                    {
                      OFFSET -3.9766 -1.54 2.3863
                      CHANNELS 6 Xposition Yposition Zposition Zrotation Xrotation Yrotation
                      JOINT rMid2_End
                      {
                        OFFSET -1.4042 -1.926 1.125
                        CHANNELS 6 Xposition Yposition Zposition Zrotation Xrotation Yrotation
                        End Site
                        {
                          OFFSET -0.014 -0.0193 0.0113
                        }
                      }
                    }
                  }
                }
                JOINT rCarpal2
                {
                  OFFSET -2.0956 0.66 -0.3894
                  CHANNELS 6 Xposition Yposition Zposition Zrotation Xrotation Yrotation
                  JOINT rRing1
                  {
                    OFFSET -5.0395 -0.09 2.4971
                    CHANNELS 6 Xposition Yposition Zposition Zrotation Xrotation Yrotation
                    JOINT rRing2
                    {
                      OFFSET -3.7921 -1.552 1.4806
                      CHANNELS 6 Xposition Yposition Zposition Zrotation Xrotation Yrotation
                      JOINT rRing2_End
                      {
                        OFFSET -1.4655 -1.808 0.9609
                        CHANNELS 6 Xposition Yposition Zposition Zrotation Xrotation Yrotation
                        End Site
                        {
                          OFFSET -0.0147 -0.0181 0.0096
                        }
                      }
                    }
                  }
                  JOINT rPinky1
                  {
                    OFFSET -4.9141 -1.269 0.3592
                    CHANNELS 6 Xposition Yposition Zposition Zrotation Xrotation Yrotation
                    JOINT rPinky2
                    {
                      OFFSET -3.1477 -1.685 0.8462
                      CHANNELS 6 Xposition Yposition Zposition Zrotation Xrotation Yrotation
                      JOINT rPinky2_End
                      {
                        OFFSET -0.8055 -1.585 0.7955
                        CHANNELS 6 Xposition Yposition Zposition Zrotation Xrotation Yrotation
                        End Site
                        {
                          OFFSET -0.0081 -0.0158 0.008
                        }
                      }
                    }
                  }
                }
              }
            }
          }
        }
      }
    }
  }
  JOINT lThigh
  {
    OFFSET 8.367 -8.2066 0.5982
    CHANNELS 6 Xposition Yposition Zposition Zrotation Xrotation Yrotation
    JOINT lShin
    {
      OFFSET 2.1923 -43.463 -0.4932
      CHANNELS 6 Xposition Yposition Zposition Zrotation Xrotation Yrotation
      JOINT lFoot
      {
        OFFSET 0.7333 -45.8593 -2.6451
        CHANNELS 6 Xposition Yposition Zposition Zrotation Xrotation Yrotation
        End Site
        {
          OFFSET 2.6618 -4.2699 12.3931
        }
      }
    }
  }
  JOINT rThigh
  {
    OFFSET -8.367 -8.2066 0.5982
    CHANNELS 6 Xposition Yposition Zposition Zrotation Xrotation Yrotation
    JOINT rShin
    {
      OFFSET -2.1923 -43.463 -0.4931
      CHANNELS 6 Xposition Yposition Zposition Zrotation Xrotation Yrotation
      JOINT rFoot
      {
        OFFSET -0.7333 -45.8593 -2.6451
        CHANNELS 6 Xposition Yposition Zposition Zrotation Xrotation Yrotation
        End Site
        {
          OFFSET -2.6618 -4.2699 12.3931
        }
      }
    }
  }
}
MOTION
Frames:	4
Frame Time:	0.0333333
-38.1555 17.8395 21.1451 5.64009e-015 60.9968 180 0 -1.186 -1.5018 -0.584707 3.98349 -0.0446871 7.10543e-015 9.964 0.2134 -1.17055 7.96722 -0.0486839 0 13.134 -3.2573 -1.17055 7.96723 -0.0486842 7.10543e-015 20.686 -1.6905 -8.54716e-005 -29.4009 -4.63147e-005 0 7.238 -0.1237 -1.15064e-007 -20.0017 2.03555e-007 1.7069 20.075 5.0056 -5.7103 19.4736 -27.8481 13.6458 -0.047 -4.849 -42.9977 -7.39256 49.9105 28.3255 -0.9759 2.2888 -1.06593 -6.99652 -62.7676 22.1583 -0.53 10.8316 -11.7468 -0.710488 -8.0435 0.786 0.112 2.5817 1.98785e-016 -2.48481e-015 -3.18055e-015 0.3601 -0.878 4.2331 -2.98177e-015 1.49089e-015 -6.36111e-015 1.8127 -1.216 2.2227 -2.98177e-015 -6.95746e-016 -6.36111e-015 0.9571 1.114 1.7695 1.98785e-016 -2.28602e-015 -3.18055e-015 4.1246 0.487 4.1451 -2.98177e-015 1.78906e-015 -6.36111e-015 3.4052 -1.454 2.7682 -2.98177e-015 -4.96962e-016 -6.36111e-015 1.4531 -1.795 1.2713 1.98785e-016 -3.97569e-015 -6.36111e-015 5.6954 0.21 2.1184 -2.98177e-015 1.78906e-015 -6.36111e-015 3.9766 -1.54 2.3863 -2.98177e-015 -4.96962e-016 -6.36111e-015 1.4042 -1.926 1.125 1.98785e-016 -3.97569e-015 -6.36111e-015 2.0956 0.66 -0.3894 1.98785e-016 -2.28602e-015 -3.18055e-015 5.0395 -0.09 2.4971 -2.98177e-015 1.78906e-015 -6.36111e-015 3.7921 -1.552 1.4806 -2.98177e-015 -4.96962e-016 -6.36111e-015 1.4655 -1.808 0.9609 1.98785e-016 -3.97569e-015 -6.36111e-015 4.9141 -1.269 0.3591 -2.98177e-015 1.78906e-015 -6.36111e-015 3.1477 -1.685 0.8462 -2.98177e-015 -4.96962e-016 -6.36111e-015 0.8055 -1.585 0.7955 1.98785e-016 -3.97569e-015 -6.36111e-015 -1.7069 20.075 5.0056 4.58841 19.3155 28.2079 -13.6458 -0.047 -4.849 43.6011 -7.87831 -49.5524 -28.3255 -0.9759 2.2888 0.139626 -8.48226 61.5873 -22.1583 -0.53 10.8316 11.5877 -1.02328 7.94734 -0.786 0.112 2.5817 -3.20785e-007 -1.33825e-006 3.62538e-007 -0.3601 -0.878 4.2331 3.97569e-015 1.59028e-015 9.54166e-015 -1.8127 -1.216 2.2227 3.20785e-007 1.33825e-006 -3.62538e-007 -0.9571 1.114 1.7695 3.18055e-015 -5.56597e-015 6.36111e-015 -4.1246 0.487 4.1451 -3.20785e-007 -1.33825e-006 3.62538e-007 -3.4052 -1.454 2.7682 3.97569e-015 7.95139e-016 9.54166e-015 -1.4531 -1.795 1.2713 3.20785e-007 1.33825e-006 -3.62538e-007 -5.6954 0.21 2.1184 -3.20785e-007 -1.33825e-006 3.62538e-007 -3.9766 -1.54 2.3863 3.97569e-015 7.95139e-016 9.54166e-015 -1.4042 -1.926 1.125 3.20785e-007 1.33825e-006 -3.62538e-007 -2.0956 0.66 -0.3894 3.18055e-015 -5.56597e-015 6.36111e-015 -5.0395 -0.09 2.4971 -3.20785e-007 -1.33825e-006 3.62538e-007 -3.7921 -1.552 1.4806 3.97569e-015 7.95139e-016 9.54166e-015 -1.4655 -1.808 0.9609 3.20785e-007 1.33825e-006 -3.62538e-007 -4.9141 -1.269 0.3592 -3.20785e-007 -1.33825e-006 3.62538e-007 -3.1477 -1.685 0.8462 3.97569e-015 7.95139e-016 9.54166e-015 -0.8055 -1.585 0.7955 3.20785e-007 1.33825e-006 -3.62538e-007 8.367 -8.2066 0.5982 31.0022 -22.612 53.0237 2.1923 -43.463 -0.4932 75.0481 47.8278 -96.9761 0.7333 -45.8593 -2.6451 -18.0672 15.8327 35.5718 -8.367 -8.2066 0.5982 -31.9004 -22.1715 -52.7114 -2.1923 -43.463 -0.4931 -73.1654 47.6438 95.5084 -0.7333 -45.8593 -2.6451 18.9086 16.7916 -34.9796 
-38.1557 17.8387 21.1461 5.64009e-015 60.9968 180 0 -1.186 -1.5018 -0.588228 3.88501 -0.0426237 -7.10543e-015 9.964 0.2134 -1.17763 7.77025 -0.0453178 -7.10543e-015 13.134 -3.2573 -1.17763 7.77025 -0.0453174 0 20.686 -1.6905 -8.92104e-005 -28.6432 -4.24459e-005 -7.10543e-015 7.238 -0.1237 -6.38723e-007 -20.0017 -6.23583e-007 1.7069 20.075 5.0056 -5.93554 19.6629 -27.4718 13.6458 -0.047 -4.849 -42.888 -7.31758 49.8435 28.3255 -0.9759 2.2888 -1.06594 -6.99651 -62.7675 22.1583 -0.53 10.8316 -11.9087 -0.367524 -7.88077 0.786 0.112 2.5817 -3.37934e-015 5.76476e-015 -9.54166e-015 0.3601 -0.878 4.2331 -6.75868e-015 7.85199e-015 -6.36111e-015 1.8127 -1.216 2.2227 -3.37934e-015 7.95139e-016 -6.36111e-015 0.9571 1.114 1.7695 -3.37934e-015 5.06901e-015 -3.18055e-015 4.1246 0.487 4.1451 -4.96962e-015 7.35503e-015 -3.18055e-015 3.4052 -1.454 2.7682 -5.1684e-015 0 -9.54166e-015 1.4531 -1.795 1.2713 1.98785e-016 3.67752e-015 -0 5.6954 0.21 2.1184 -4.96962e-015 7.35503e-015 -3.18055e-015 3.9766 -1.54 2.3863 -5.1684e-015 0 -9.54166e-015 1.4042 -1.926 1.125 1.98785e-016 3.67752e-015 -0 2.0956 0.66 -0.3894 -3.37934e-015 5.06901e-015 -3.18055e-015 5.0395 -0.09 2.4971 -4.96962e-015 7.35503e-015 -3.18055e-015 3.7921 -1.552 1.4806 -5.1684e-015 0 -9.54166e-015 1.4655 -1.808 0.9609 1.98785e-016 3.67752e-015 -0 4.9141 -1.269 0.3591 -4.96962e-015 7.35503e-015 -3.18055e-015 3.1477 -1.685 0.8462 -5.1684e-015 0 -9.54166e-015 0.8055 -1.585 0.7955 1.98785e-016 3.67752e-015 -0 -1.7069 20.075 5.0056 4.86915 19.517 27.8157 -13.6458 -0.047 -4.849 43.468 -7.78579 -49.4662 -28.3255 -0.9759 2.2888 0.139631 -8.48225 61.5873 -22.1583 -0.53 10.8316 11.7568 -0.666756 7.7958 -0.786 0.112 2.5817 2.38542e-015 -4.37326e-015 -6.36111e-015 -0.3601 -0.878 4.2331 -3.97569e-015 2.78299e-015 -1.90833e-014 -1.8127 -1.216 2.2227 4.8553e-031 8.74653e-015 -3.18055e-015 -0.9571 1.114 1.7695 -1.59028e-015 -4.77083e-015 6.36111e-015 -4.1246 0.487 4.1451 7.95139e-016 3.18055e-015 6.36111e-015 -3.4052 -1.454 2.7682 -2.38542e-015 -2.78299e-015 -6.36111e-015 -1.4531 -1.795 1.2713 -5.56597e-015 -7.55382e-015 -3.18055e-015 -5.6954 0.21 2.1184 7.95139e-016 3.18055e-015 6.36111e-015 -3.9766 -1.54 2.3863 -2.38542e-015 -2.78299e-015 -6.36111e-015 -1.4042 -1.926 1.125 -5.56597e-015 -7.55382e-015 -3.18055e-015 -2.0956 0.66 -0.3894 -1.59028e-015 -4.77083e-015 6.36111e-015 -5.0395 -0.09 2.4971 7.95139e-016 3.18055e-015 6.36111e-015 -3.7921 -1.552 1.4806 -2.38542e-015 -2.78299e-015 -6.36111e-015 -1.4655 -1.808 0.9609 -5.56597e-015 -7.55382e-015 -3.18055e-015 -4.9141 -1.269 0.3592 7.95139e-016 3.18055e-015 6.36111e-015 -3.1477 -1.685 0.8462 -2.38542e-015 -2.78299e-015 -6.36111e-015 -0.8055 -1.585 0.7955 -5.56597e-015 -7.55382e-015 -3.18055e-015 8.367 -8.2066 0.5982 31.8019 -22.5649 54.5572 2.1923 -43.463 -0.4932 75.3646 47.449 -98.5304 0.7333 -45.8593 -2.6451 -17.6333 16.045 36.0867 -8.367 -8.2066 0.5982 -32.6987 -22.1192 -54.1984 -2.1923 -43.463 -0.4931 -73.4473 47.3194 96.8983 -0.7333 -45.8593 -2.6451 18.4323 17.0321 -35.3354 
-38.1559 17.8381 21.1469 5.64009e-015 60.9968 180 0 -1.186 -1.5018 -0.591364 3.79625 -0.0407588 0 9.964 0.2134 -1.18393 7.59274 -0.0422866 0 13.134 -3.2573 -1.18393 7.59274 -0.0422863 7.10543e-015 20.686 -1.6905 -4.53179e-006 -27.9601 -1.88003e-006 -7.10543e-015 7.238 -0.1237 3.86512e-007 -20.0017 2.90609e-008 1.7069 20.075 5.0056 -6.13961 19.832 -27.132 13.6458 -0.047 -4.849 -42.7893 -7.25024 49.7831 28.3255 -0.9759 2.2888 -1.06592 -6.99652 -62.7675 22.1583 -0.53 10.8316 -12.0553 -0.0592798 -7.73335 0.786 0.112 2.5817 -6.75868e-015 1.88845e-015 -1.27222e-014 0.3601 -0.878 4.2331 -2.38542e-015 2.48481e-015 -3.18055e-015 1.8127 -1.216 2.2227 -2.5842e-015 9.93923e-015 -6.36111e-015 0.9571 1.114 1.7695 -1.98785e-015 6.95746e-016 -6.36111e-015 4.1246 0.487 4.1451 -6.75868e-015 -3.97569e-016 1.27222e-014 3.4052 -1.454 2.7682 -6.36111e-015 -9.14409e-015 -3.18055e-015 1.4531 -1.795 1.2713 -7.95139e-016 -1.39149e-015 -3.18055e-015 5.6954 0.21 2.1184 -6.75868e-015 -3.97569e-016 1.27222e-014 3.9766 -1.54 2.3863 -6.36111e-015 -9.14409e-015 -3.18055e-015 1.4042 -1.926 1.125 -7.95139e-016 -1.39149e-015 -3.18055e-015 2.0956 0.66 -0.3894 -1.98785e-015 6.95746e-016 -6.36111e-015 5.0395 -0.09 2.4971 -6.75868e-015 -3.97569e-016 1.27222e-014 3.7921 -1.552 1.4806 -6.36111e-015 -9.14409e-015 -3.18055e-015 1.4655 -1.808 0.9609 -7.95139e-016 -1.39149e-015 -3.18055e-015 4.9141 -1.269 0.3591 -6.75868e-015 -3.97569e-016 1.27222e-014 3.1477 -1.685 0.8462 -6.36111e-015 -9.14409e-015 -3.18055e-015 0.8055 -1.585 0.7955 -7.95139e-016 -1.39149e-015 -3.18055e-015 -1.7069 20.075 5.0056 5.12338 19.6967 27.4613 -13.6458 -0.047 -4.849 43.348 -7.70272 -49.3883 -28.3255 -0.9759 2.2888 0.139633 -8.48225 61.5873 -22.1583 -0.53 10.8316 11.9098 -0.346269 7.65842 -0.786 0.112 2.5817 -5.56597e-015 -3.57812e-015 -0 -0.3601 -0.878 4.2331 -4.77083e-015 -5.56597e-015 6.36111e-015 -1.8127 -1.216 2.2227 -7.15625e-015 -4.37326e-015 1.27222e-014 -0.9571 1.114 1.7695 -3.31043e-031 -1.98785e-015 -9.54166e-015 -4.1246 0.487 4.1451 -2.64834e-031 1.19271e-015 1.27222e-014 -3.4052 -1.454 2.7682 -8.74653e-015 -8.34896e-015 6.36111e-015 -1.4531 -1.795 1.2713 -3.97569e-015 1.59028e-015 1.90833e-014 -5.6954 0.21 2.1184 -2.64834e-031 1.19271e-015 1.27222e-014 -3.9766 -1.54 2.3863 -8.74653e-015 -8.34896e-015 6.36111e-015 -1.4042 -1.926 1.125 -3.97569e-015 1.59028e-015 1.90833e-014 -2.0956 0.66 -0.3894 -3.31043e-031 -1.98785e-015 -9.54166e-015 -5.0395 -0.09 2.4971 -2.64834e-031 1.19271e-015 1.27222e-014 -3.7921 -1.552 1.4806 -8.74653e-015 -8.34896e-015 6.36111e-015 -1.4655 -1.808 0.9609 -3.97569e-015 1.59028e-015 1.90833e-014 -4.9141 -1.269 0.3592 -2.64834e-031 1.19271e-015 1.27222e-014 -3.1477 -1.685 0.8462 -8.74653e-015 -8.34896e-015 6.36111e-015 -0.8055 -1.585 0.7955 -3.97569e-015 1.59028e-015 1.90833e-014 8.367 -8.2066 0.5982 32.522 -22.5053 55.9394 2.1923 -43.463 -0.4932 75.6367 47.1057 -99.9243 0.7333 -45.8593 -2.6451 -17.2437 16.2379 36.5487 -8.367 -8.2066 0.5982 -33.4174 -22.0556 -55.5387 -2.1923 -43.463 -0.4931 -73.6912 47.0257 98.1454 -0.7333 -45.8593 -2.6451 18.004 17.25 -35.6535 
-38.1561 17.8375 21.1477 5.64009e-015 60.9968 180 0 -1.186 -1.5018 -0.594472 3.70743 -0.0388842 0 9.964 0.2134 -1.19017 7.41507 -0.0392486 0 13.134 -3.2573 -1.19017 7.41507 -0.039249 0 20.686 -1.6905 -1.14809e-005 -27.2762 -1.87292e-006 -7.10543e-015 7.238 -0.1237 2.25398e-007 -20.0017 -3.21706e-007 1.7069 20.075 5.0056 -6.345 20 -26.7912 13.6458 -0.047 -4.849 -42.6905 -7.18299 49.7226 28.3255 -0.9759 2.2888 -1.06593 -6.99652 -62.7675 22.1583 -0.53 10.8316 -12.2027 0.248626 -7.58511 0.786 0.112 2.5817 2.18663e-015 -3.8763e-015 -6.36111e-015 0.3601 -0.878 4.2331 4.57205e-015 3.97569e-016 3.18055e-015 1.8127 -1.216 2.2227 3.77691e-015 -2.28602e-015 -3.18055e-015 0.9571 1.114 1.7695 -2.5842e-015 -1.39149e-015 -6.36111e-015 4.1246 0.487 4.1451 3.97569e-015 -3.47873e-015 -3.18055e-015 3.4052 -1.454 2.7682 4.77083e-015 7.95139e-016 -3.18055e-015 1.4531 -1.795 1.2713 5.36719e-015 -1.98785e-015 -3.18055e-015 5.6954 0.21 2.1184 3.97569e-015 -3.47873e-015 -3.18055e-015 3.9766 -1.54 2.3863 4.77083e-015 7.95139e-016 -3.18055e-015 1.4042 -1.926 1.125 5.36719e-015 -1.98785e-015 -3.18055e-015 2.0956 0.66 -0.3894 -2.5842e-015 -1.39149e-015 -6.36111e-015 5.0395 -0.09 2.4971 3.97569e-015 -3.47873e-015 -3.18055e-015 3.7921 -1.552 1.4806 4.77083e-015 7.95139e-016 -3.18055e-015 1.4655 -1.808 0.9609 5.36719e-015 -1.98785e-015 -3.18055e-015 4.9141 -1.269 0.3591 3.97569e-015 -3.47873e-015 -3.18055e-015 3.1477 -1.685 0.8462 4.77083e-015 7.95139e-016 -3.18055e-015 0.8055 -1.585 0.7955 5.36719e-015 -1.98785e-015 -3.18055e-015 -1.7069 20.075 5.0056 5.37913 19.8749 27.1055 -13.6458 -0.047 -4.849 43.228 -7.61982 -49.3104 -28.3255 -0.9759 2.2888 0.139623 -8.48226 61.5873 -22.1583 -0.53 10.8316 12.0636 -0.0260745 7.52013 -0.786 0.112 2.5817 6.62086e-032 -1.19271e-015 3.18055e-015 -0.3601 -0.878 4.2331 4.37326e-015 6.36111e-015 3.18055e-015 -1.8127 -1.216 2.2227 3.18055e-015 1.59028e-015 9.54166e-015 -0.9571 1.114 1.7695 -0 -3.18055e-015 -0 -4.1246 0.487 4.1451 4.77083e-015 -1.98785e-015 9.54166e-015 -3.4052 -1.454 2.7682 -2.38542e-015 5.56597e-015 1.27222e-014 -1.4531 -1.795 1.2713 3.97569e-016 3.97569e-016 3.18055e-015 -5.6954 0.21 2.1184 4.77083e-015 -1.98785e-015 9.54166e-015 -3.9766 -1.54 2.3863 -2.38542e-015 5.56597e-015 1.27222e-014 -1.4042 -1.926 1.125 3.97569e-016 3.97569e-016 3.18055e-015 -2.0956 0.66 -0.3894 -0 -3.18055e-015 -0 -5.0395 -0.09 2.4971 4.77083e-015 -1.98785e-015 9.54166e-015 -3.7921 -1.552 1.4806 -2.38542e-015 5.56597e-015 1.27222e-014 -1.4655 -1.808 0.9609 3.97569e-016 3.97569e-016 3.18055e-015 -4.9141 -1.269 0.3592 4.77083e-015 -1.98785e-015 9.54166e-015 -3.1477 -1.685 0.8462 -2.38542e-015 5.56597e-015 1.27222e-014 -0.8055 -1.585 0.7955 3.97569e-016 3.97569e-016 3.18055e-015 8.367 -8.2066 0.5982 33.2417 -22.4291 57.3221 2.1923 -43.463 -0.4932 75.8959 46.7586 -101.311 0.7333 -45.8593 -2.6451 -16.855 16.4321 37.0094 -8.367 -8.2066 0.5982 -34.1355 -21.976 -56.8793 -2.1923 -43.463 -0.4931 -73.9251 46.729 99.3871 -0.7333 -45.8593 -2.6451 17.5761 17.4686 -35.9698 
